<svg xmlns="http://www.w3.org/2000/svg" xmlns:xlink="http://www.w3.org/1999/xlink" width="82px" height="82px">
    <defs>
        <linearGradient id="PSgrad_0" x1="0%" x2="100%" y1="0%" y2="0%">
            <stop offset="0%" stop-color="rgb(252,85,71)" stop-opacity="1"/>
            <stop offset="100%" stop-color="rgb(255,120,90)" stop-opacity="1"/>
        </linearGradient>

    </defs>
    <path fill-rule="evenodd" fill="rgb(0, 0, 0)" d="M41.000,-0.001 C18.356,-0.001 -0.000,18.355 -0.000,40.999 C-0.000,63.643 18.356,81.999 41.000,81.999 C63.644,81.999 82.000,63.643 82.000,40.999 C82.000,18.355 63.644,-0.001 41.000,-0.001 ZM29.797,58.832 L29.797,23.167 L60.684,40.999 L29.797,58.832 Z"/>
    <path fill="url(#PSgrad_0)" d="M41.000,-0.001 C18.356,-0.001 -0.000,18.355 -0.000,40.999 C-0.000,63.643 18.356,81.999 41.000,81.999 C63.644,81.999 82.000,63.643 82.000,40.999 C82.000,18.355 63.644,-0.001 41.000,-0.001 ZM29.797,58.832 L29.797,23.167 L60.684,40.999 L29.797,58.832 Z"/>
</svg>