<svg xmlns="http://www.w3.org/2000/svg" width="14" height="18"><path fill-rule="evenodd" d="M12.103 12.746l-2.707-1.409a.782.782 0 0 1-.413-.698v-.998a4.94 4.94 0 0 0 .203-.28 6.853 6.853 0 0 0 .837-1.711c.4-.192.66-.603.66-1.068v-1.18c0-.284-.102-.56-.284-.775v-1.57c.016-.162.078-1.127-.592-1.925C9.224.441 8.28.09 6.999.09S4.774.441 4.192 1.132c-.671.797-.609 1.763-.593 1.925v1.57a1.208 1.208 0 0 0-.283.775v1.18c0 .359.156.694.424.917a6.282 6.282 0 0 0 .992 2.136v.976a.782.782 0 0 1-.39.684l-2.528 1.437c-.822.467-1.332 1.362-1.332 2.337v.956c0 1.4 4.263 1.77 6.517 1.77 2.254 0 6.517-.37 6.517-1.77v-.898c0-1.015-.541-1.927-1.413-2.381zm.846 3.279c0 .399-2.1 1.18-5.95 1.18s-5.95-.781-5.95-1.18v-.956c0-.759.397-1.455 1.037-1.819l2.527-1.435c.423-.241.686-.702.686-1.204V9.425l-.066-.081c-.007-.009-.701-.884-.966-2.085l-.026-.117-.097-.065a.594.594 0 0 1-.262-.495v-1.18c0-.165.068-.32.19-.436l.094-.088V3.041l-.003-.038c-.001-.009-.097-.826.455-1.483C5.087.964 5.889.68 6.999.68c1.106 0 1.906.281 2.376.835.552.65.461 1.48.46 1.488l-.003 1.875.094.089c.122.115.19.27.19.435v1.18a.583.583 0 0 1-.403.56l-.141.045-.046.146a6.27 6.27 0 0 1-.802 1.686 3.544 3.544 0 0 1-.238.318l-.07.085v1.217c0 .522.278.992.727 1.225l2.707 1.41c.678.352 1.099 1.063 1.099 1.853v.898z"/></svg>