<svg xmlns="http://www.w3.org/2000/svg" width="18" height="13"><path fill-rule="evenodd" d="M15.872 13.001H1.816a1.365 1.365 0 0 1-1.351-1.375V2.259c0-.758.606-1.374 1.351-1.374h14.056c.745 0 1.351.616 1.351 1.374v9.367c0 .758-.606 1.375-1.351 1.375zM1.005 11.626a.82.82 0 0 0 .811.825h14.056a.82.82 0 0 0 .811-.825V2.259a.832.832 0 0 0-.062-.313L9.836 7.959a1.493 1.493 0 0 1-.992.365c-.359 0-.719-.122-.992-.365L1.067 1.947a.827.827 0 0 0-.062.312v9.367zm.811-10.191a.774.774 0 0 0-.38.109l6.771 6.001a1 1 0 0 0 1.274 0l6.77-6.002a.777.777 0 0 0-.379-.108H1.816z"/></svg>