<svg xmlns="http://www.w3.org/2000/svg" width="17" height="17"><path fill-rule="evenodd" d="M13.296 16.791c-.658 0-1.454-.165-2.329-.496-1.918-.722-4.004-2.152-5.875-4.023-1.872-1.873-3.301-3.961-4.025-5.88C.41 4.648.408 3.216 1.063 2.561c.095-.094.191-.196.29-.3C1.95 1.632 2.626.924 3.522.956c.617.026 1.215.409 1.827 1.172 1.81 2.251.994 3.052.05 3.982l-.167.166c-.154.154-.446.87 2.268 3.584.886.887 1.642 1.536 2.246 1.928.38.247 1.06.621 1.339.342l.168-.168c.928-.943 1.73-1.756 3.979.052.762.612 1.145 1.21 1.17 1.829.037.895-.676 1.573-1.305 2.17-.104.099-.205.195-.3.289-.325.326-.845.489-1.501.489zM3.458 1.488c-.636 0-1.211.605-1.719 1.14-.103.108-.202.212-.299.31-.488.487-.439 1.77.126 3.267.697 1.849 2.083 3.87 3.903 5.69 1.818 1.819 3.838 3.206 5.687 3.902 1.497.567 2.778.614 3.265.127.098-.098.202-.196.31-.299.547-.519 1.167-1.108 1.14-1.762-.019-.449-.346-.932-.972-1.435-1.874-1.507-2.398-.975-3.267-.094l-.17.172c-.415.416-1.09.323-2.006-.272-.635-.413-1.42-1.085-2.332-1.997-2.252-2.253-2.973-3.633-2.268-4.34l.17-.167c.883-.869 1.416-1.394-.091-3.27-.504-.625-.987-.952-1.436-.971l-.041-.001z"/></svg>