<svg xmlns="http://www.w3.org/2000/svg" width="16" height="15"><path fill-rule="evenodd" fill="#FC5749" d="M15.81 1.771L8.107 9.324a.652.652 0 0 1-.914 0L5.092 7.265a.625.625 0 0 1 0-.897.656.656 0 0 1 .914 0L7.65 7.981 14.896.876a.654.654 0 0 1 .914 0 .624.624 0 0 1 0 .895zm-5.573.036a6.412 6.412 0 0 0-2.584-.54h-.004a6.383 6.383 0 0 0-4.492 1.822 6.135 6.135 0 0 0-1.864 4.407c-.002 3.437 2.848 6.234 6.353 6.236h.004a6.382 6.382 0 0 0 4.492-1.823 6.129 6.129 0 0 0 1.864-4.406v-.638c0-.35.29-.634.647-.634a.64.64 0 0 1 .646.634v.638a7.374 7.374 0 0 1-2.244 5.302A7.675 7.675 0 0 1 7.65 15h-.005a7.679 7.679 0 0 1-5.408-2.2A7.383 7.383 0 0 1 0 7.495a7.373 7.373 0 0 1 2.244-5.301A7.675 7.675 0 0 1 7.649-.001h.005a7.76 7.76 0 0 1 3.109.65.628.628 0 0 1 .327.836.652.652 0 0 1-.853.322z"/></svg>