<svg xmlns="http://www.w3.org/2000/svg" width="76" height="76"><path fill-rule="evenodd" fill="#FFF" d="M43.972 29.469h-9.488v-9.504a2.376 2.376 0 0 0-2.372-2.378 2.374 2.374 0 0 0-2.372 2.378v9.504h-9.486c-1.31 0-2.372.433-2.372 1.746s1.062 3.009 2.372 3.009h9.489v9.502a2.374 2.374 0 0 0 2.372 2.377 2.374 2.374 0 0 0 2.371-2.377v-9.502h9.489a2.375 2.375 0 0 0 2.372-2.378 2.377 2.377 0 0 0-2.375-2.377zm31.273 42.367L55.632 52.535c5.135-5.58 8.291-12.959 8.291-21.08 0-17.372-14.308-31.453-31.96-31.453C14.31.002.003 14.083.003 31.455c0 17.371 14.307 31.451 31.96 31.451a32.14 32.14 0 0 0 20.116-7.023L71.768 75.26a2.487 2.487 0 0 0 3.477 0c.96-.946.96-2.479 0-3.424zM31.963 58.068c-14.936 0-27.044-11.916-27.044-26.613 0-14.699 12.108-26.614 27.044-26.614 14.935 0 27.042 11.915 27.042 26.614 0 14.697-12.107 26.613-27.042 26.613z"/></svg>