<svg
        xmlns="http://www.w3.org/2000/svg"
        xmlns:xlink="http://www.w3.org/1999/xlink"
        width="148px" height="148px">
    <path fill-rule="evenodd"  fill="rgb(254, 108, 84)"
          d="M145.268,106.888 L134.340,106.888 C132.830,106.888 131.608,105.660 131.608,104.147 C131.608,102.634 132.830,101.407 134.340,101.407 L145.268,101.407 C146.778,101.407 148.001,102.634 148.001,104.147 C148.001,105.660 146.778,106.888 145.268,106.888 ZM128.076,86.430 C127.543,86.967 126.843,87.234 126.144,87.234 C125.446,87.234 124.746,86.965 124.213,86.430 C123.146,85.361 123.146,83.626 124.213,82.556 L131.939,74.803 C133.006,73.733 134.735,73.733 135.802,74.803 C136.869,75.873 136.869,77.607 135.802,78.678 L128.076,86.430 ZM7.584,136.184 C7.051,136.720 6.352,136.987 5.653,136.987 C4.954,136.987 4.255,136.719 3.721,136.184 C2.654,135.114 2.654,133.379 3.721,132.309 L131.587,4.040 C132.654,2.969 134.382,2.969 135.450,4.040 C136.517,5.109 136.517,6.845 135.450,7.915 L7.584,136.184 ZM63.167,27.741 C62.634,28.276 61.934,28.543 61.236,28.543 C60.537,28.543 59.837,28.275 59.304,27.741 L57.373,25.803 L55.441,27.741 C54.908,28.276 54.208,28.543 53.509,28.543 C52.811,28.543 52.111,28.275 51.578,27.741 C50.511,26.672 50.511,24.936 51.578,23.865 L53.509,21.928 L51.578,19.990 C50.511,18.919 50.511,17.185 51.578,16.114 C52.645,15.044 54.374,15.044 55.441,16.114 L57.372,18.051 L59.304,16.113 C60.371,15.043 62.100,15.043 63.167,16.113 C64.235,17.182 64.235,18.918 63.167,19.989 L61.235,21.926 L63.167,23.865 C64.235,24.936 64.235,26.670 63.167,27.741 ZM18.794,68.187 C19.861,67.116 21.589,67.116 22.657,68.187 L24.588,70.124 L26.520,68.185 C27.587,67.115 29.316,67.115 30.383,68.185 C31.450,69.255 31.450,70.991 30.383,72.060 L28.451,73.999 L30.383,75.938 C31.450,77.009 31.450,78.742 30.383,79.813 C29.850,80.349 29.150,80.616 28.451,80.616 C27.753,80.616 27.053,80.348 26.520,79.813 L24.588,77.876 L22.657,79.813 C22.124,80.349 21.424,80.616 20.725,80.616 C20.026,80.616 19.327,80.348 18.794,79.813 C17.726,78.743 17.726,77.009 18.794,75.938 L20.725,74.000 L18.794,72.063 C17.726,70.992 17.726,69.258 18.794,68.187 ZM36.885,41.287 C37.728,41.778 38.248,42.682 38.248,43.660 C38.248,44.639 37.728,45.543 36.885,46.033 C33.160,48.193 28.910,49.334 24.588,49.334 C11.029,49.334 -0.001,38.269 -0.001,24.668 C-0.001,11.068 11.029,0.002 24.588,0.003 C28.910,0.003 33.160,1.144 36.885,3.303 C37.728,3.794 38.248,4.698 38.248,5.676 C38.248,6.655 37.728,7.559 36.885,8.048 C30.986,11.472 27.320,17.839 27.320,24.668 C27.320,31.497 30.986,37.864 36.885,41.287 ZM21.855,24.668 C21.855,17.599 24.911,10.915 30.057,6.282 C28.291,5.755 26.447,5.483 24.588,5.483 C14.043,5.483 5.463,14.088 5.463,24.667 C5.463,35.245 14.043,43.851 24.588,43.851 C26.447,43.851 28.291,43.581 30.057,43.053 C24.910,38.421 21.855,31.736 21.855,24.668 ZM104.287,79.482 C117.846,79.482 128.876,90.547 128.876,104.147 C128.876,117.748 117.846,128.813 104.287,128.813 C90.729,128.813 79.699,117.748 79.699,104.147 C79.699,90.547 90.728,79.482 104.287,79.482 ZM104.287,123.333 C114.831,123.333 123.412,114.727 123.412,104.147 C123.412,93.568 114.832,84.963 104.287,84.963 C93.743,84.963 85.163,93.568 85.163,104.147 C85.163,114.727 93.743,123.333 104.287,123.333 ZM103.818,131.555 C105.328,131.555 106.550,132.782 106.550,134.295 L106.550,145.257 C106.550,146.771 105.328,147.999 103.818,147.999 C102.308,147.999 101.086,146.771 101.086,145.257 L101.086,134.295 C101.086,132.782 102.308,131.555 103.818,131.555 ZM128.075,124.135 L135.801,131.888 C136.869,132.958 136.869,134.694 135.801,135.763 C135.268,136.299 134.569,136.566 133.870,136.566 C133.171,136.566 132.472,136.298 131.938,135.763 L124.212,128.011 C123.145,126.941 123.145,125.205 124.212,124.135 C125.279,123.065 127.008,123.065 128.075,124.135 Z"/>
</svg>
