<svg xmlns="http://www.w3.org/2000/svg" width="28" height="28"><path fill-rule="evenodd" fill="#F0133C" d="M20.273 28H7.727C3.466 28 0 24.533 0 20.272V7.726C0 3.466 3.466 0 7.727 0h12.546C24.534 0 28 3.466 28 7.726v12.546C28 24.533 24.534 28 20.273 28zm5.242-7.728V7.726a5.248 5.248 0 0 0-5.242-5.242H7.727a5.249 5.249 0 0 0-5.243 5.242v12.546a5.25 5.25 0 0 0 5.243 5.244h12.546a5.25 5.25 0 0 0 5.243-5.244h-.001zm-3.998-11.95c-.478 0-.949-.195-1.287-.533a1.84 1.84 0 0 1-.535-1.289c0-.48.196-.95.535-1.289a1.832 1.832 0 0 1 1.287-.533c.481 0 .951.194 1.289.533.339.339.533.809.533 1.289 0 .479-.194.949-.533 1.289a1.84 1.84 0 0 1-1.289.533zM14 21.214c-3.978 0-7.215-3.236-7.215-7.214S10.022 6.784 14 6.784c3.978 0 7.215 3.238 7.215 7.216S17.978 21.214 14 21.214zm0-11.945A4.736 4.736 0 0 0 9.269 14 4.737 4.737 0 0 0 14 18.73 4.736 4.736 0 0 0 18.73 14 4.736 4.736 0 0 0 14 9.269z"/></svg>