<svg xmlns="http://www.w3.org/2000/svg" width="26" height="15"><path fill-rule="evenodd" fill="#4E8ABC" d="M25.861 13.548a2.013 2.013 0 0 0-.088-.171c-.451-.822-1.313-1.83-2.586-3.026l-.027-.028-.013-.013-.014-.014h-.013c-.578-.557-.944-.931-1.097-1.123-.28-.365-.343-.735-.189-1.109.108-.283.514-.881 1.218-1.794.37-.484.663-.872.879-1.163 1.562-2.101 2.239-3.442 2.031-4.027l-.081-.136c-.054-.083-.194-.157-.419-.226-.226-.068-.515-.08-.867-.034l-3.898.027a.492.492 0 0 0-.271.007l-.176.041-.067.034-.054.042a.568.568 0 0 0-.149.143.925.925 0 0 0-.135.24 22.565 22.565 0 0 1-1.449 3.081c-.334.566-.64 1.057-.92 1.471-.28.416-.515.722-.704.918a5.008 5.008 0 0 1-.514.473c-.154.118-.271.169-.352.15l-.23-.054a.91.91 0 0 1-.305-.336 1.532 1.532 0 0 1-.156-.534 6.095 6.095 0 0 1-.047-.555c-.004-.155-.002-.374.007-.657.009-.283.013-.475.013-.575 0-.347.007-.724.021-1.13.013-.406.024-.728.034-.965.009-.237.013-.488.013-.753s-.016-.473-.047-.623a2.185 2.185 0 0 0-.142-.439.73.73 0 0 0-.278-.328 1.514 1.514 0 0 0-.453-.185c-.478-.11-1.087-.169-1.828-.178-1.678-.018-2.756.092-3.235.329a1.809 1.809 0 0 0-.514.41c-.162.201-.185.31-.068.329.542.082.925.279 1.151.588l.081.165c.063.119.127.329.19.63s.103.634.121 1c.045.666.045 1.236 0 1.711a20.26 20.26 0 0 1-.128 1.109 2.262 2.262 0 0 1-.183.644 2.7 2.7 0 0 1-.162.301.256.256 0 0 1-.068.069 1.033 1.033 0 0 1-.366.068c-.126 0-.279-.064-.46-.191a3.355 3.355 0 0 1-.561-.528 7.133 7.133 0 0 1-.657-.938 16.253 16.253 0 0 1-.758-1.424l-.216-.397a31.84 31.84 0 0 1-.555-1.117c-.235-.488-.443-.96-.623-1.417a.898.898 0 0 0-.325-.438L5.105.861a1.37 1.37 0 0 0-.528-.205L.868.683C.489.683.232.769.096.944l-.054.082a.448.448 0 0 0-.04.219c0 .101.027.223.081.369a45.226 45.226 0 0 0 1.766 3.724c.636 1.196 1.189 2.159 1.658 2.889.469.731.948 1.421 1.435 2.068.487.648.81 1.064.968 1.247.158.182.282.319.372.41l.338.329c.217.219.535.481.955.787.419.307.884.607 1.394.904.51.297 1.103.539 1.78.726a6.073 6.073 0 0 0 1.976.226h1.557c.315-.028.554-.128.717-.301l.054-.07a.896.896 0 0 0 .101-.252c.032-.114.048-.24.048-.377a4.54 4.54 0 0 1 .087-1.06c.068-.316.145-.553.231-.712a1.74 1.74 0 0 1 .291-.404c.108-.11.185-.176.23-.199a1 1 0 0 1 .108-.048c.217-.073.472-.002.765.213.293.213.569.478.826.794.257.315.566.668.927 1.061.361.392.677.684.947.876l.271.164c.181.11.415.211.704.301.288.092.541.115.758.069l3.465-.055c.343 0 .609-.057.799-.171.189-.114.302-.239.338-.376.036-.137.038-.293.007-.466a1.78 1.78 0 0 0-.095-.363z"/></svg>