<svg height="511pt" viewBox="1 -55 511.999 511" width="511pt" xmlns="http://www.w3.org/2000/svg"><path d="M430.375 152.063c.371-4.708.64-9.458.797-14.239 14.324-6.281 39.512-20.41 51.305-45.703 16.644-35.691-.88-77.512-1.633-79.277L475.563.5 462.71 4.39c-1.836.555-45.137 14.016-61.781 49.704-14.227 30.511-3.485 65.5.402 76.117-.195 20.848-2.648 40.973-7.2 59.879-7.198 14.543-10.109 28.41-11.093 34.238-8.676 20.86-20.457 39.918-35.672 56.04-8.914 5.991-16.242 12.405-23.125 20.007-20.754 14.39-44.105 22.047-68.347 22.047h-.055c-24.242 0-47.594-7.656-68.348-22.047-6.875-7.594-14.199-14.008-23.125-20.008-15.515-16.445-27.191-35.644-35.672-56.039-.98-5.828-3.89-19.695-11.09-34.234-4.55-18.91-7.003-39.035-7.203-59.883 3.891-10.613 14.63-45.606.403-76.117C94.16 18.406 50.859 4.945 49.023 4.39L36.172.5 30.89 12.844c-.754 1.765-18.274 43.59-1.633 79.277 11.797 25.293 36.98 39.422 51.304 45.703.157 4.781.426 9.528.797 14.238-30.746-15.14-66.773-6.917-68.449-6.519L0 148.59l1.45 13.183c.21 1.91 5.51 46.985 37.84 69.618 18.769 13.144 43.355 16.34 65.972 14.066a226.218 226.218 0 0 0 9.445 18.055c-26.812 0-55.059 16.953-71.207 34.984L34.543 308.5l8.957 10.004c1.277 1.426 31.777 34.984 71.156 34.984 26.121 0 48.324-14.761 60.696-25.12a156.528 156.528 0 0 0 22.144 11.847c-18.39 12.316-32.89 30.383-40.598 52.191l28.278 9.992c10.57-29.898 38.988-49.984 70.719-49.984s60.152 20.086 70.718 49.984l28.278-9.996c-7.711-21.812-22.22-39.882-40.621-52.203 7.593-3.3 14.98-7.25 22.113-11.832 12.37 10.36 34.574 25.121 60.695 25.121 39.375 0 69.879-33.558 71.156-34.984l8.957-10.004-8.957-10.004c-1.277-1.43-31.78-34.984-71.156-34.984h-.05a226.91 226.91 0 0 0 9.445-18.059c22.613 2.277 47.207-.922 65.972-14.062 32.293-22.61 37.809-67.637 38.028-69.543L512 148.586l-12.992-3.05c-1.684-.395-37.863-8.61-68.633 6.526zM56.437 79.445c-6.214-13.328-4.734-29.148-2.285-40.355 10.176 5.344 23.274 14.394 29.47 27.68 6.214 13.328 4.737 29.14 2.284 40.355-10.172-5.344-23.273-14.395-29.469-27.68zm.055 127.38c-12.05-8.438-18.558-22.91-21.926-33.825 11.364-.469 27.079.82 39.13 9.254 6.784 4.754 11.85 11.41 15.605 18.273a265.861 265.861 0 0 0 4.48 15.594c-11.265.223-25.988-1.383-37.289-9.297zm58.164 116.671c-14.719 0-28.437-8.035-37.558-14.996 9.129-6.965 22.843-14.996 37.558-14.996 11.211 0 21.832 4.664 30.297 9.96a180.258 180.258 0 0 0 6.063 5.93c-9.11 6.743-22.27 14.102-36.36 14.102zm319.965-15.012c-9.144 6.965-22.887 15.012-37.543 15.012-14.09 0-27.25-7.36-36.36-14.101a186.81 186.81 0 0 0 5.981-5.844c8.492-5.332 19.16-10.047 30.38-10.047 14.706 0 28.417 8.023 37.542 14.98zM428.113 66.77c6.223-13.34 19.301-22.38 29.465-27.704 2.453 11.215 3.938 27.043-2.281 40.38-6.219 13.335-19.297 22.37-29.465 27.702-2.457-11.218-3.937-27.043 2.281-40.378zm27.13 140.054c-11.345 7.946-26.04 9.551-37.298 9.32a264.208 264.208 0 0 0 4.461-15.519c3.762-6.906 8.836-13.61 15.633-18.367 12.05-8.438 27.828-9.723 39.227-9.262-3.442 10.938-10.016 25.422-22.024 33.828zm0 0"/><path d="M293.555 83.035L255.895 8.54l-37.657 74.496-85.101 12.074 61.61 58.633-14.45 82.254 75.598-38.805 75.601 38.805-14.453-82.254 61.61-58.633zm-2.04 98.727l-35.62-18.285-35.618 18.285 6.793-38.66-28.37-27 39.245-5.57 17.95-35.512 17.953 35.511 39.246 5.57-28.371 27zm0 0"/></svg>